<svg width="24" height="24" viewBox="0 0 24 24" fill="none" xmlns="http://www.w3.org/2000/svg">
<path fill-rule="evenodd" clip-rule="evenodd" d="M12 22.5C17.799 22.5 22.5 17.799 22.5 12C22.5 6.20101 17.799 1.5 12 1.5C6.20101 1.5 1.5 6.20101 1.5 12C1.5 17.799 6.20101 22.5 12 22.5ZM8.80737 9.89085L10.9404 12.0006L8.80737 14.1089C8.66687 14.2654 8.59662 14.4451 8.59662 14.6481C8.59662 14.8511 8.67087 15.0268 8.81937 15.1753C8.96787 15.3239 9.14362 15.3981 9.34662 15.3981C9.54962 15.3981 9.72937 15.3279 9.88587 15.1874L11.9956 13.0544L14.1054 15.1874C14.3239 15.3909 14.5699 15.4534 14.8434 15.3749C15.1169 15.2964 15.2926 15.1206 15.3706 14.8476C15.4486 14.5746 15.3861 14.3286 15.1831 14.1096L13.0501 11.9998L15.1831 9.8901C15.3866 9.6716 15.4491 9.4256 15.3706 9.1521C15.2921 8.8786 15.1164 8.70285 14.8434 8.62485C14.5704 8.54685 14.3244 8.60935 14.1054 8.81235L11.9956 10.9454L9.88587 8.81235C9.72937 8.67185 9.54962 8.6016 9.34662 8.6016C9.14362 8.6016 8.96787 8.67585 8.81937 8.82435C8.67087 8.97285 8.59662 9.1486 8.59662 9.3516C8.59662 9.5546 8.66687 9.73435 8.80737 9.89085Z" fill="#E53E3E"/>
</svg>
