<?xml version="1.0" encoding="utf-8"?>
<!-- Generator: Adobe Illustrator 24.2.0, SVG Export Plug-In . SVG Version: 6.00 Build 0)  -->
<svg version="1.1" id="图层_1" xmlns="http://www.w3.org/2000/svg" xmlns:xlink="http://www.w3.org/1999/xlink" x="0px" y="0px"
	 viewBox="0 0 20 20" style="enable-background:new 0 0 20 20;" xml:space="preserve">
<style type="text/css">
	.st0{opacity:1.000000e-02;fill:#202425;enable-background:new    ;}
	.st1{fill:#979695;}
	.st2{fill:#0C598B;}
</style>
<g id="底部" transform="translate(-1475.000000, -25.000000)">
	<g id="编组-6" transform="translate(1459.000000, 13.000000)">
		<g id="编组-2" transform="translate(0.000000, 1.000000)">
			<g id="Etherscan" transform="translate(16.000000, 11.000000)">
				<polygon id="路径" class="st0" points="0,0 20,0 20,20 0,20 				"/>
				<g id="etherscan">
					<path id="路径_1_" class="st1" d="M20,9.4c0,0.2,0,0.4,0,0.6c0,5.5-4.5,10-10,10c-2.3,0-4.7-0.7-6.3-1.7
						c3.1-0.5,2.8-0.3,8-2.4C16.5,14,20,9.7,20,9.4z"/>
					<path id="路径_2_" class="st2" d="M10,0c4.5,0,8.4,3,9.6,7.3c0,0-0.9,2.1-3.9,4.2c-0.1,0.1,0-5.6-0.1-6.5
						c0-0.5-0.3-0.5-0.6-0.5c-0.5,0-1.4,0-1.8,0c-0.5,0-0.6,0.1-0.6,0.4c0,0.1,0,8.3,0,8.4c-0.3,0.2-0.9,0.4-1.2,0.5
						c-0.1,0,0-5.8,0-6.5c0-0.5-0.1-0.7-0.5-0.7c-0.5,0-1.5,0-2,0C8.4,6.6,8.2,7,8.2,7.3c0,0.5,0.1,7.3,0,7.5
						C7.8,14.9,7.5,15,7.1,15c0,0,0-5.5,0-5.7c0-0.5-0.3-0.6-0.7-0.6c-0.3,0-1.2,0-1.5,0c-0.6,0-0.7,0.2-0.7,0.6c0,0.4,0,6.3,0,6.3
						c-0.8,0.1-1.6,0.2-2.2,0.3C0.7,14.2,0,12.1,0,10C0,4.5,4.5,0,10,0z"/>
				</g>
			</g>
		</g>
	</g>
</g>
</svg>
