<svg width="16" height="16" viewBox="0 0 16 16" fill="none" xmlns="http://www.w3.org/2000/svg">
<rect x="0.5" y="0.5" width="15" height="15" rx="7.5" fill="#07A658"/>
<path fill-rule="evenodd" clip-rule="evenodd" d="M7.18192 9.77369L5.53342 8.12519C5.46575 8.05752 5.385 8.03669 5.29117 8.06269C5.19734 8.08869 5.13875 8.14727 5.11542 8.23844C5.09209 8.3296 5.11425 8.4116 5.18192 8.48444L7.18192 10.4844L11.1819 6.48444C11.2288 6.43227 11.2509 6.37235 11.2484 6.30469C11.2459 6.23702 11.2198 6.17844 11.1702 6.12894C11.1205 6.07944 11.0632 6.05469 10.9982 6.05469C10.9332 6.05469 10.8746 6.0781 10.8224 6.12494L7.18192 9.77369Z" fill="white"/>
<path d="M7.18192 9.77369L6.82837 10.1272C6.9222 10.2211 7.0495 10.2738 7.1822 10.2737C7.31491 10.2736 7.44214 10.2208 7.53587 10.1268L7.18192 9.77369ZM5.53342 8.12519L5.88697 7.77163H5.88697L5.53342 8.12519ZM5.18192 8.48444L4.81561 8.82476C4.81978 8.82925 4.82403 8.83366 4.82837 8.83799L5.18192 8.48444ZM7.18192 10.4844L6.82837 10.838C7.02363 11.0333 7.34021 11.0333 7.53547 10.838L7.18192 10.4844ZM11.1819 6.48444L11.5355 6.83799C11.5418 6.83165 11.548 6.82514 11.554 6.81846L11.1819 6.48444ZM10.8224 6.12494L10.4884 5.75288C10.4816 5.759 10.4749 5.7653 10.4685 5.77178L10.8224 6.12494ZM7.53547 9.42013L5.88697 7.77163L5.17987 8.47874L6.82837 10.1272L7.53547 9.42013ZM5.88697 7.77163C5.68917 7.57383 5.42133 7.50778 5.15766 7.58084L5.42468 8.54453C5.40143 8.55097 5.35496 8.55786 5.2972 8.54296C5.23895 8.52793 5.19974 8.49861 5.17987 8.47874L5.88697 7.77163ZM5.15766 7.58084C4.8986 7.65262 4.70065 7.84246 4.63103 8.11446L5.59981 8.36241C5.59232 8.39166 5.57277 8.43731 5.53041 8.47968C5.48873 8.52135 5.44629 8.53854 5.42468 8.54453L5.15766 7.58084ZM4.63103 8.11446C4.56275 8.38127 4.64002 8.63576 4.81561 8.82476L5.54823 8.14412C5.56022 8.15702 5.58378 8.18812 5.59722 8.23783C5.611 8.28881 5.60716 8.33367 5.59981 8.36241L4.63103 8.11446ZM4.82837 8.83799L6.82837 10.838L7.53547 10.1309L5.53547 8.13088L4.82837 8.83799ZM7.53547 10.838L11.5355 6.83799L10.8284 6.13088L6.82837 10.1309L7.53547 10.838ZM11.554 6.81846C11.684 6.67358 11.7556 6.48849 11.7481 6.28623L10.7488 6.32315C10.7477 6.29558 10.7518 6.26191 10.7647 6.22689C10.7776 6.19219 10.7953 6.16668 10.8099 6.15042L11.554 6.81846ZM11.7481 6.28623C11.7407 6.08725 11.6589 5.91009 11.5231 5.77479L10.8172 6.48308C10.8025 6.46846 10.7844 6.44533 10.7702 6.41337C10.7558 6.38111 10.7497 6.34951 10.7488 6.32315L11.7481 6.28623ZM11.5231 5.77479C11.3879 5.64001 11.2066 5.55469 10.9982 5.55469V6.55469C10.9654 6.55469 10.9282 6.54805 10.8918 6.5323C10.856 6.51688 10.8315 6.4973 10.8172 6.48308L11.5231 5.77479ZM10.9982 5.55469C10.7997 5.55469 10.6245 5.6307 10.4884 5.75288L11.1564 6.497C11.1437 6.50846 11.122 6.52417 11.0911 6.53653C11.0595 6.54914 11.0273 6.55469 10.9982 6.55469V5.55469ZM10.4685 5.77178L6.82797 9.42053L7.53587 10.1268L11.1764 6.47809L10.4685 5.77178Z" fill="white"/>
<rect x="0.5" y="0.5" width="15" height="15" rx="7.5" stroke="#07A658"/>
</svg>
