<?xml version="1.0" encoding="utf-8"?>
<!-- Generator: Adobe Illustrator 24.2.0, SVG Export Plug-In . SVG Version: 6.00 Build 0)  -->
<svg version="1.1" id="图层_1" xmlns="http://www.w3.org/2000/svg" xmlns:xlink="http://www.w3.org/1999/xlink" x="0px" y="0px"
	 viewBox="0 0 20 20" style="enable-background:new 0 0 20 20;" xml:space="preserve">
<style type="text/css">
	.st0{opacity:1.000000e-02;fill:#202425;enable-background:new    ;}
	.st1{fill:#131415;}
</style>
<g id="编组-2" transform="translate(1698.000000, 16.000000)">
	<g id="红包" transform="translate(16.000000, 11.000000)">
		<polygon id="路径" class="st0" points="-1714,-27 -1694,-27 -1694,-7 -1714,-7 		"/>
		<path id="形状" class="st1" d="M-1699.6-27c2.2,0,4.1,1.8,4.1,4l0,0v12c0,2.2-1.8,4-4.1,4l0,0h-8.9c-2.2,0-4.1-1.8-4.1-4l0,0
			v-12c0-2.2,1.8-4,4.1-4l0,0H-1699.6z M-1703.4-19.5h-1.2v0.6c-1.3,0-2.4,1.1-2.4,2.5s1.1,2.5,2.4,2.5l0,0v2.5
			c-0.7,0-1.2-0.6-1.2-1.2l0,0h-1.2c0,1.4,1.1,2.5,2.4,2.5l0,0v0.6h1.2v-0.6c1.3,0,2.4-1.1,2.5-2.5c0-0.8-0.4-1.4-0.9-1.9
			c-0.4-0.4-0.9-0.6-1.3-0.6l0,0h-0.3v-2.5c0.6,0,1.2,0.6,1.2,1.2l0,0h1.2c0-1.4-1-2.5-2.4-2.5l0,0V-19.5z M-1703.4-13.9
			c0.6,0,1.2,0.5,1.2,1.2c0,0.7-0.6,1.2-1.2,1.2l0,0V-13.9z M-1704.6-17.6v2.5c-0.7,0-1.2-0.5-1.2-1.2
			C-1705.8-17-1705.3-17.6-1704.6-17.6L-1704.6-17.6z M-1698.6-23.6c-0.2-0.3-0.6-0.4-0.8-0.2c-4.3,2.3-9,0-9,0
			c-0.3-0.1-0.7,0-0.9,0.3c-0.1,0.3,0,0.6,0.3,0.8c0.2,0.1,2.4,1.2,5.3,1.2c1.5,0,3.2-0.3,4.8-1.2
			C-1698.5-22.9-1698.4-23.3-1698.6-23.6z"/>
	</g>
</g>
</svg>
